<svg id="Capa_2" data-name="Capa 2" xmlns="http://www.w3.org/2000/svg" width="500" height="576" viewBox="0 0 500 576">
  <path d="M500.76,147C480.5,129,479,97.5,472,87.5c-12.33-17.62-25-43-34-48.6-16.79-5.38-41,12.6-54,42.6-4.66,10.75-14,33-20.39,34.09-32.61,7.91-24.27,11-47.53,24.43C227,191.5,226.26,182.14,204.44,187.14,131,168.5,102.7,161.87,83.82,170.42,69.39,177.84,96,219.5,162.41,307.93c4.25,42.55,12.46,78.38,30,98.4,0,0,42.84,37.61,51.57,43.17,14.18,9,34.72,24.19,56.42,33.62,30,21.54,66.11,32,113.46,21.68,8.77-1.66,21.12-9.3,24.12-8.3,5.11,1.7,6,10,35,28.12,16.52,10.61,29,20.31,27.51,26.89Z" stroke="#000" stroke-miterlimit="10"/>
  <path d="M307.5,373.5c0,13.81-13.43,25-30,25s-27.26-11.47-30-25c-3.45-17.06,11.58-26.74,30-25C294,350.06,307.5,359.69,307.5,373.5Z" fill="#fff"/>
  <ellipse cx="276.08" cy="364.4" rx="5" ry="13" transform="translate(-118.42 133.36) rotate(-22.5)" stroke="#000" stroke-miterlimit="10"/>
  <path d="M403.46,339.5c7.44,11.63,24.79,13.83,38.75,4.9S459,320.06,454,307.18c-6.28-16.23-24.16-16.29-38.74-4.9C402.22,312.48,396,327.87,403.46,339.5Z" fill="#fff"/>
  <ellipse fill="000" cx="425.5" cy="315.5" rx="5" ry="13" transform="translate(-88.34 186.81) rotate(-22.5)" stroke="#000" stroke-miterlimit="10"/>
</svg>
