<svg id="Capa_1" data-name="Capa 1" xmlns="http://www.w3.org/2000/svg" width="50" height="50" viewBox="0 0 50 50">
  <g>
    <path d="M20.49.83c0,.06-.21,1.49-.44,3.18l-.42,3.07-.41.48c-.22.27-.45.55-.52.61a8.88,8.88,0,0,0-2.05,4.46,15.66,15.66,0,0,0,0,5.87c.57,2.85,2,4.93,3.55,5.3a2.85,2.85,0,0,0,1.09,0c1.48-.35,2.81-2.21,3.44-4.8a10.91,10.91,0,0,0,.33-2.44,7.82,7.82,0,0,1,0-1,12.36,12.36,0,0,0-.16-2.28,11.58,11.58,0,0,0-1.62-4.56,4.41,4.41,0,0,0-1.42-1.26c-.15-.08-.18-.12-.33-.44l-.17-.36-.22-1.56c-.12-.86-.3-2.18-.4-2.93S20.53.78,20.52.75,20.5.77,20.49.83Z"/>
    <path d="M30.63,3.78c-.28,1.43-.58,3-.66,3.37l-.15.77-.34.23a5,5,0,0,0-1.85,2.57,18.26,18.26,0,0,0-1,5.4,8.47,8.47,0,0,1-.05.92c-.05,0,0,.17,0,.72.35,3,1.56,5.47,3.13,6.3a2.52,2.52,0,0,0,2.3,0c1.51-.8,2.7-3.09,3.09-5.95a17,17,0,0,0-.09-4.78,9.26,9.26,0,0,0-2-4.59c-.14-.15-.43-.48-.63-.72L32,7.57l-.43-3.15c-.25-1.73-.45-3.17-.45-3.2S30.92,2.34,30.63,3.78Z"/>
    <path d="M8.73,13.05c-.71.32-1.3,1.68-1.52,3.54a16.15,16.15,0,0,0,0,2.95,9.63,9.63,0,0,0,.54,2.3.75.75,0,0,1,.09.5A10.12,10.12,0,0,0,8,24.17c.58,3.51,3,7,5.4,7.82a2.58,2.58,0,0,0,1.36.16,2.47,2.47,0,0,0,1.91-1.73c.73-1.88.25-4.94-1.17-7.53S11.7,18.49,10,18.83a1,1,0,0,1-.3,0,9.61,9.61,0,0,1-.44-1.35A10.91,10.91,0,0,1,9,13.27l0-.27H9A1.06,1.06,0,0,0,8.73,13.05Z"/>
    <path d="M42.12,13.29a10.69,10.69,0,0,1-.23,4.16c-.07.29-.2.73-.29,1s-.16.44-.22.44L41,18.82a3.08,3.08,0,0,0-1.8.39,8.82,8.82,0,0,0-3.42,3.59,11.34,11.34,0,0,0-1.56,6A4.32,4.32,0,0,0,35,31.38c1.82,2.17,5.61-.23,7.41-4.7a10.92,10.92,0,0,0,.85-4,2.09,2.09,0,0,1,.1-.89,9.87,9.87,0,0,0,.6-3.72A9.12,9.12,0,0,0,43.22,14c-.29-.56-.73-1-1-1h-.1Z"/>
    <path d="M24.93,27a5.69,5.69,0,0,0-2.49.85,3.6,3.6,0,0,0-1,1A14.89,14.89,0,0,0,19.87,32c-.24.57-.51,1.13-.58,1.24a5.62,5.62,0,0,1-2.66,2.07,9.39,9.39,0,0,0-4,2.18,5.16,5.16,0,0,0-1,1.38,5.79,5.79,0,0,0-.7,2.9,6,6,0,0,0,3.19,5.41,16,16,0,0,0,1.63.66,3.89,3.89,0,0,0,1.36,0,15,15,0,0,0,1.51-.48,5.29,5.29,0,0,0,1.1-.59,10.78,10.78,0,0,1,4.09-1.74,9.4,9.4,0,0,1,2.37,0,12.41,12.41,0,0,1,4.71,2,5.53,5.53,0,0,0,2,.92,6.3,6.3,0,0,0,1.83,0,5.76,5.76,0,0,0,2.84-1.42,6.25,6.25,0,0,0-.18-9.32,3.43,3.43,0,0,0-1.68-.82,7,7,0,0,1-2.17-.88A5.67,5.67,0,0,1,31.9,33.9a10.66,10.66,0,0,1-1.16-2.58,9.48,9.48,0,0,0-.84-1.92A5.6,5.6,0,0,0,24.93,27Z"/>
  </g>
</svg>
